<svg id="Layer_1" data-name="Layer 1" xmlns="http://www.w3.org/2000/svg" viewBox="0 0 90 90">
	<defs>
		<style>.cls-1{fill:#32689a;}</style>
	</defs>
	<path class="cls-1" d="M58.1,0H18.6L1.2,80.1h23.1L30,53.6h16.5c15.8,0,29-9.7,32.6-26.3C83.1,8.5,69.6,0,58.1,0z M40.8,38.2h-7.5     l5-21.9h11.3c3.9,0,6.8,2.3,7.8,5.7c-0.5-0.1-1-0.2-1.5-0.2H44.5L40.8,38.2z M57.3,27.3c-1.4,6-7,10.7-12.8,10.9l2.7-12h10.3     C57.5,26.5,57.4,26.9,57.3,27.3z M85.4,32.8c1.3-6.2,0.7-11.3-1.1-15.3c3.7,4.5,5.7,11,3.8,19.7c-3.5,16.6-16.8,26.3-32.6,26.3     H39L33.3,90H10.2l1-4.4h19.4l5.7-26.6h16.5C68.6,59.1,81.8,49.3,85.4,32.8z" id="PayPal"/>

</svg>
